<svg width="253.9" height="68.901" viewBox="0 0 253.9 68.901" xmlns="http://www.w3.org/2000/svg"><g id="svgGroup" stroke-linecap="round" fill-rule="evenodd" font-size="9pt" stroke="#000" stroke-width="0.25mm" fill="#000" style="stroke:#000;stroke-width:0.25mm;fill:#000"><path d="M 158.5 67.4 L 137.2 4.3 A 9.145 9.145 0 0 1 137.055 3.825 Q 136.933 3.381 136.907 3.064 A 2 2 0 0 1 136.9 2.9 A 2.218 2.218 0 0 1 137.036 2.11 A 1.993 1.993 0 0 1 137.5 1.4 A 2.008 2.008 0 0 1 138.597 0.842 A 2.864 2.864 0 0 1 139.1 0.8 Q 140.628 0.8 141.153 2.077 A 2.811 2.811 0 0 1 141.2 2.2 L 160.8 60.3 L 183.7 2.1 Q 184.1 0.8 185.7 0.8 A 2.459 2.459 0 0 1 186.61 0.965 A 2.282 2.282 0 0 1 187.25 1.35 A 1.919 1.919 0 0 1 187.683 1.859 A 1.662 1.662 0 0 1 187.9 2.7 A 3.774 3.774 0 0 1 187.702 3.895 A 4.593 4.593 0 0 1 187.7 3.9 L 162.6 67.4 A 2.067 2.067 0 0 1 162.233 68.138 Q 161.7 68.8 160.6 68.8 Q 160 68.8 159.35 68.4 A 2.347 2.347 0 0 1 158.911 68.057 A 1.68 1.68 0 0 1 158.5 67.4 Z M 63.9 66.8 L 63.9 20.9 A 2.038 2.038 0 0 1 64.082 20.031 A 2.007 2.007 0 0 1 64.55 19.4 A 2.372 2.372 0 0 1 65.159 18.985 A 1.974 1.974 0 0 1 66 18.8 A 2.705 2.705 0 0 1 66.694 18.884 A 1.97 1.97 0 0 1 67.6 19.4 A 2.024 2.024 0 0 1 68.199 20.842 A 2.657 2.657 0 0 1 68.2 20.9 L 68.2 41.2 Q 69.6 35 72.95 29.9 A 30.018 30.018 0 0 1 77.083 24.843 A 24.888 24.888 0 0 1 80.8 21.85 A 18.271 18.271 0 0 1 85.842 19.506 A 15.916 15.916 0 0 1 90.2 18.9 A 15.751 15.751 0 0 1 93.686 19.262 Q 96.001 19.787 97.688 21.076 A 9.176 9.176 0 0 1 99 22.3 Q 101.138 24.723 102.311 28.973 A 33.703 33.703 0 0 1 103.1 32.7 Q 104.2 39.7 104.2 51.8 L 104.1 66.5 A 2.987 2.987 0 0 1 104.009 67.255 A 2.24 2.24 0 0 1 103.55 68.15 A 1.782 1.782 0 0 1 102.245 68.796 A 2.379 2.379 0 0 1 102.1 68.8 A 1.901 1.901 0 0 1 100.942 68.403 A 2.648 2.648 0 0 1 100.65 68.15 A 2.189 2.189 0 0 1 100.124 67.34 A 2.169 2.169 0 0 1 100 66.6 L 99.9 52 Q 99.9 40.6 99.2 34.65 Q 98.5 28.7 96.35 25.8 A 6.844 6.844 0 0 0 92.473 23.243 Q 91.181 22.9 89.6 22.9 A 12.101 12.101 0 0 0 84.006 24.309 A 16.668 16.668 0 0 0 81.45 25.95 Q 78.074 28.557 75.246 33.246 A 41.637 41.637 0 0 0 74.3 34.9 Q 71.4 40.1 69.85 46.15 A 53.533 53.533 0 0 0 68.44 53.897 A 45.599 45.599 0 0 0 68.2 57.8 L 68.1 66.4 A 3.57 3.57 0 0 1 68.032 67.118 Q 67.94 67.566 67.723 67.913 A 2.052 2.052 0 0 1 67.55 68.15 A 1.792 1.792 0 0 1 66.444 68.764 A 2.644 2.644 0 0 1 66 68.8 A 2.029 2.029 0 0 1 64.736 68.357 A 2.694 2.694 0 0 1 64.55 68.2 Q 63.9 67.6 63.9 66.8 Z M 213.7 65.3 L 247.2 23.1 L 216.5 23.1 A 2.038 2.038 0 0 1 215.631 22.918 A 2.007 2.007 0 0 1 215 22.45 A 2.372 2.372 0 0 1 214.585 21.841 A 1.974 1.974 0 0 1 214.4 21 A 2.705 2.705 0 0 1 214.484 20.306 A 1.97 1.97 0 0 1 215 19.4 A 2.024 2.024 0 0 1 216.442 18.801 A 2.657 2.657 0 0 1 216.5 18.8 L 251.2 18.8 A 2.218 2.218 0 0 1 251.99 18.936 A 1.993 1.993 0 0 1 252.7 19.4 A 2.008 2.008 0 0 1 253.258 20.497 A 2.864 2.864 0 0 1 253.3 21 Q 253.3 21.7 252.9 22.2 L 219.3 64.6 L 251.7 64.6 Q 252.6 64.6 253.25 65.2 Q 253.9 65.8 253.9 66.7 A 2.112 2.112 0 0 1 253.27 68.23 A 2.638 2.638 0 0 1 253.25 68.25 A 2.189 2.189 0 0 1 252.44 68.776 A 2.169 2.169 0 0 1 251.7 68.9 L 215.4 68.9 A 2.112 2.112 0 0 1 213.87 68.27 A 2.638 2.638 0 0 1 213.85 68.25 A 2.189 2.189 0 0 1 213.324 67.44 A 2.169 2.169 0 0 1 213.2 66.7 A 2.121 2.121 0 0 1 213.7 65.3 Z M 47.6 67.1 L 39 41.9 L 11.9 47.9 L 4.4 67.1 A 3.266 3.266 0 0 1 3.998 67.901 Q 3.386 68.768 2.281 68.799 A 2.941 2.941 0 0 1 2.2 68.8 A 2.705 2.705 0 0 1 1.506 68.716 A 1.97 1.97 0 0 1 0.6 68.2 A 2.024 2.024 0 0 1 0.001 66.758 A 2.657 2.657 0 0 1 0 66.7 Q 0 66.139 0.257 65.45 A 6.143 6.143 0 0 1 0.4 65.1 L 6.8 48.8 A 63.77 63.77 0 0 1 5.858 49.072 Q 3.969 49.6 3.4 49.6 A 1.901 1.901 0 0 1 2.242 49.203 A 2.648 2.648 0 0 1 1.95 48.95 A 2.189 2.189 0 0 1 1.424 48.14 A 2.169 2.169 0 0 1 1.3 47.4 A 2.118 2.118 0 0 1 1.417 46.684 A 1.868 1.868 0 0 1 1.8 46.05 A 2.459 2.459 0 0 1 2.822 45.383 A 3.092 3.092 0 0 1 3.1 45.3 L 8.7 44 L 25.5 1.4 A 2.424 2.424 0 0 1 26.042 0.592 Q 26.51 0.143 27.221 0.035 A 3.171 3.171 0 0 1 27.7 0 Q 28.4 0 29 0.4 A 2.221 2.221 0 0 1 29.462 0.804 A 1.777 1.777 0 0 1 29.8 1.4 L 51.6 64.7 Q 52.063 65.904 52.097 66.679 A 2.744 2.744 0 0 1 52.1 66.8 A 1.901 1.901 0 0 1 51.703 67.958 A 2.648 2.648 0 0 1 51.45 68.25 A 2.195 2.195 0 0 1 49.984 68.894 A 2.933 2.933 0 0 1 49.8 68.9 Q 48.2 68.9 47.6 67.1 Z M 121.2 66.5 L 121.9 21.2 A 2.272 2.272 0 0 1 122.505 19.649 A 2.932 2.932 0 0 1 122.55 19.6 A 2.505 2.505 0 0 1 123.037 19.187 A 1.762 1.762 0 0 1 124 18.9 A 2.112 2.112 0 0 1 125.53 19.53 A 2.638 2.638 0 0 1 125.55 19.55 A 2.195 2.195 0 0 1 126.194 21.016 A 2.933 2.933 0 0 1 126.2 21.2 L 125.6 66.5 A 2.272 2.272 0 0 1 124.995 68.051 A 2.932 2.932 0 0 1 124.95 68.1 A 2.256 2.256 0 0 1 124.31 68.591 A 2 2 0 0 1 123.4 68.8 A 1.871 1.871 0 0 1 122.393 68.499 A 2.807 2.807 0 0 1 121.9 68.1 Q 121.2 67.4 121.2 66.5 Z M 197.8 66.5 L 198.5 21.2 A 2.272 2.272 0 0 1 199.105 19.649 A 2.932 2.932 0 0 1 199.15 19.6 A 2.505 2.505 0 0 1 199.637 19.187 A 1.762 1.762 0 0 1 200.6 18.9 A 2.112 2.112 0 0 1 202.13 19.53 A 2.638 2.638 0 0 1 202.15 19.55 A 2.195 2.195 0 0 1 202.794 21.016 A 2.933 2.933 0 0 1 202.8 21.2 L 202.2 66.5 A 2.272 2.272 0 0 1 201.595 68.051 A 2.932 2.932 0 0 1 201.55 68.1 A 2.256 2.256 0 0 1 200.91 68.591 A 2 2 0 0 1 200 68.8 A 1.871 1.871 0 0 1 198.993 68.499 A 2.807 2.807 0 0 1 198.5 68.1 Q 197.8 67.4 197.8 66.5 Z M 13.8 43 L 37.5 37.8 L 27.3 8.4 L 13.8 43 Z M 122 6.5 L 122.1 2.2 A 1.801 1.801 0 0 1 122.598 0.953 A 2.481 2.481 0 0 1 122.75 0.8 A 2.372 2.372 0 0 1 123.359 0.385 A 1.974 1.974 0 0 1 124.2 0.2 A 2.038 2.038 0 0 1 125.069 0.382 A 2.007 2.007 0 0 1 125.7 0.85 A 2.372 2.372 0 0 1 126.115 1.459 A 1.974 1.974 0 0 1 126.3 2.3 L 126.2 6.6 Q 126.2 7.5 125.55 8.05 A 2.314 2.314 0 0 1 124.042 8.6 A 2.918 2.918 0 0 1 124 8.6 A 1.801 1.801 0 0 1 122.753 8.102 A 2.481 2.481 0 0 1 122.6 7.95 A 2.372 2.372 0 0 1 122.185 7.341 A 1.974 1.974 0 0 1 122 6.5 Z M 198.6 6.5 L 198.7 2.2 A 1.801 1.801 0 0 1 199.198 0.953 A 2.481 2.481 0 0 1 199.35 0.8 A 2.372 2.372 0 0 1 199.959 0.385 A 1.974 1.974 0 0 1 200.8 0.2 A 2.038 2.038 0 0 1 201.669 0.382 A 2.007 2.007 0 0 1 202.3 0.85 A 2.372 2.372 0 0 1 202.715 1.459 A 1.974 1.974 0 0 1 202.9 2.3 L 202.8 6.6 Q 202.8 7.5 202.15 8.05 A 2.314 2.314 0 0 1 200.642 8.6 A 2.918 2.918 0 0 1 200.6 8.6 A 1.801 1.801 0 0 1 199.353 8.102 A 2.481 2.481 0 0 1 199.2 7.95 A 2.372 2.372 0 0 1 198.785 7.341 A 1.974 1.974 0 0 1 198.6 6.5 Z" vector-effect="non-scaling-stroke"/></g></svg>